# xmcd
#
# Track frame offsets:
# 150
# 16190
# 31017
# 46392
# 65812
# 85787
# 105010
# 120837
# 138152
# 155230
# 170617
# 183800
# 200767
# 213297
# 230212
#
# Disc length: 3331 seconds
#
#
# Revision: 2
# Processed by: cddbd v1.5PL3 Copyright (c) Steve Scherf et al.
# Submitted via: FreeRIP 2.70 
#
DISCID=c00d010f
DTITLE=Colin Buchanan - The Measure Of A Man
DYEAR=1994
DGENRE=Country
TTITLE0=Paradise
TTITLE1=Chook
TTITLE2=The Birdsville Races
TTITLE3=Thinking Of You
TTITLE4=The Measure Of A Man
TTITLE5=The Wanaaring Road
TTITLE6=Out West Of The Mighty Darling
TTITLE7=At Kalulah
TTITLE8=Brophy's Boxing Troupe
TTITLE9=This Town Is Getting Smaller Every Year
TTITLE10=By The Barwon
TTITLE11=Ray's Taxi (With John Williamson)
TTITLE12=Here One Moment
TTITLE13=The Heroes Of The Flames
TTITLE14=No Place Like Home
EXTD=
EXTT0=
EXTT1=
EXTT2=
EXTT3=
EXTT4=
EXTT5=
EXTT6=
EXTT7=
EXTT8=
EXTT9=
EXTT10=
EXTT11=
EXTT12=
EXTT13=
EXTT14=
PLAYORDER=
